<?xml version="1.0" standalone="no"?>
<!DOCTYPE svg PUBLIC "-//W3C//DTD SVG 20010904//EN"
 "http://www.w3.org/TR/2001/REC-SVG-20010904/DTD/svg10.dtd">
<svg version="1.0" xmlns="http://www.w3.org/2000/svg"
 width="315.000000pt" height="304.000000pt" viewBox="0 0 315.000000 304.000000"
 preserveAspectRatio="xMidYMid meet">

<g transform="translate(0.000000,304.000000) scale(0.100000,-0.100000)"
fill="#000000" stroke="none">
<path d="M1335 2404 c-478 -196 -880 -365 -893 -377 -12 -11 -27 -37 -33 -57
-10 -31 -7 -46 26 -128 42 -103 63 -124 95 -92 22 22 22 20 -35 155 -20 49 -9
67 60 93 31 12 60 22 64 22 4 0 -1 -50 -12 -110 -21 -117 -17 -140 24 -140 27
0 32 13 59 159 l25 134 130 54 c71 29 134 53 140 53 12 0 -29 -259 -43 -271
-4 -3 -37 -18 -74 -33 -62 -26 -68 -31 -68 -57 0 -22 6 -30 24 -35 13 -3 32
-1 43 4 10 5 347 143 748 307 518 211 738 305 758 324 45 44 44 81 -5 200 -28
67 -52 111 -68 123 -60 44 -36 52 -965 -328z m913 268 c6 -5 28 -48 47 -96 26
-63 33 -92 26 -104 -8 -15 -161 -85 -169 -77 -2 1 7 61 19 131 24 140 39 169
77 146z m-142 -59 c-3 -10 -14 -71 -25 -137 -11 -65 -22 -120 -24 -122 -7 -7
-271 -113 -275 -110 -1 2 7 64 20 137 l23 134 135 57 c74 31 139 57 143 57 5
1 6 -7 3 -16z m-370 -150 c-3 -10 -14 -71 -25 -137 -11 -65 -22 -120 -24 -122
-8 -8 -270 -114 -274 -110 -2 2 6 64 19 137 l23 133 135 57 c74 32 139 58 143
58 5 1 6 -7 3 -16z m-393 -274 c-12 -73 -25 -134 -27 -136 -10 -10 -269 -113
-274 -109 -2 3 7 64 20 137 l23 132 125 53 c69 29 132 53 141 53 13 1 12 -15
-8 -130z"/>
<path d="M575 1721 c-11 -5 -31 -21 -45 -36 l-25 -27 0 -609 0 -609 33 -32 32
-33 970 0 970 0 32 33 33 32 0 610 0 610 -33 32 -32 33 -958 2 c-526 1 -966
-2 -977 -6z m494 -185 c39 -63 71 -117 71 -120 0 -3 -67 -6 -149 -6 l-149 0
-71 114 c-39 63 -71 117 -71 120 0 3 67 6 149 6 l149 0 71 -114z m400 0 c39
-63 71 -117 71 -120 0 -3 -67 -6 -149 -6 l-149 0 -71 114 c-39 63 -71 117 -71
120 0 3 67 6 149 6 l149 0 71 -114z m400 0 c39 -63 71 -117 71 -120 0 -3 -67
-6 -149 -6 l-149 0 -71 114 c-39 63 -71 117 -71 120 0 3 67 6 149 6 l149 0 71
-114z m400 0 c39 -63 71 -117 71 -120 0 -3 -67 -6 -149 -6 l-149 0 -71 114
c-39 63 -71 117 -71 120 0 3 67 6 149 6 l149 0 71 -114z m219 102 c8 -8 12
-49 12 -120 l0 -108 -29 0 c-26 0 -36 11 -100 114 -39 63 -71 117 -71 120 0
12 176 6 188 -6z m-1815 -107 c37 -60 67 -112 67 -115 0 -3 -36 -6 -80 -6
l-80 0 0 108 c0 100 3 122 19 122 3 0 36 -49 74 -109z m1827 -629 c0 -320 -3
-431 -12 -440 -17 -17 -1879 -17 -1896 0 -9 9 -12 120 -12 440 l0 428 960 0
960 0 0 -428z"/>
<path d="M1152 1038 c-16 -16 -15 -43 2 -57 9 -8 121 -10 391 -9 347 3 379 4
389 21 8 12 8 22 0 35 -10 16 -42 17 -390 20 -287 2 -383 -1 -392 -10z"/>
<path d="M1152 798 c-16 -16 -15 -43 2 -57 9 -8 121 -10 391 -9 347 3 379 4
389 21 8 12 8 22 0 35 -10 16 -42 17 -390 20 -287 2 -383 -1 -392 -10z"/>
</g>
</svg>
