<?xml version="1.0" standalone="no"?>
<!DOCTYPE svg PUBLIC "-//W3C//DTD SVG 20010904//EN"
 "http://www.w3.org/TR/2001/REC-SVG-20010904/DTD/svg10.dtd">
<svg version="1.0" xmlns="http://www.w3.org/2000/svg"
 width="343.000000pt" height="346.000000pt" viewBox="0 0 343.000000 346.000000"
 preserveAspectRatio="xMidYMid meet">

<g transform="translate(0.000000,346.000000) scale(0.100000,-0.100000)"
fill="#000000" stroke="none">
<path d="M726 3019 c-62 -15 -153 -68 -197 -116 -22 -24 -55 -74 -72 -111
l-32 -67 0 -975 0 -975 32 -67 c44 -93 100 -151 191 -196 l76 -37 976 0 976 0
76 37 c91 45 147 103 191 196 l32 67 0 503 0 504 -28 24 c-38 33 -96 33 -134
0 l-28 -24 -5 -484 -5 -483 -27 -47 c-21 -34 -41 -53 -80 -72 l-52 -26 -917 0
-917 0 -53 28 c-43 22 -59 38 -81 81 l-28 53 0 918 0 918 28 53 c23 45 37 59
81 82 l55 27 462 0 c497 0 503 1 530 51 27 52 8 115 -41 137 -32 15 -947 15
-1009 1z"/>
<path d="M2405 3019 c-125 -15 -229 -66 -357 -174 -290 -242 -387 -562 -237
-780 l27 -40 -179 -181 c-163 -164 -179 -183 -179 -215 0 -43 23 -77 63 -94
50 -21 83 -3 187 100 52 52 98 95 102 95 3 0 14 -23 23 -51 24 -73 16 -150
-26 -236 -48 -98 -226 -277 -324 -324 -140 -68 -265 -48 -372 59 -96 96 -122
195 -83 311 30 90 75 154 183 258 73 71 110 98 172 127 44 21 91 43 105 50 28
13 49 65 42 102 -2 13 -16 35 -31 50 -23 23 -32 26 -78 22 -162 -14 -432 -237
-543 -449 -97 -186 -91 -358 17 -521 57 -87 139 -160 232 -206 73 -36 77 -37
190 -37 85 0 131 5 171 18 174 58 394 254 489 437 90 173 94 324 11 484 l-31
60 176 176 c164 166 175 179 175 214 0 55 -43 96 -101 96 -40 0 -47 -5 -144
-100 -110 -109 -111 -109 -135 -36 -32 98 16 233 124 353 143 159 249 225 372
231 91 5 156 -22 230 -96 97 -96 124 -195 84 -311 -30 -90 -75 -154 -178 -252
-95 -92 -148 -127 -232 -154 -71 -22 -100 -53 -100 -106 0 -32 7 -47 31 -71
28 -29 34 -30 82 -25 73 9 217 83 304 157 97 81 194 198 242 290 117 227 88
432 -89 611 -83 83 -186 143 -270 154 -25 3 -54 8 -65 9 -11 2 -47 0 -80 -5z"/>
</g>
</svg>
