<?xml version="1.0" encoding="UTF-8"?>
<svg xmlns="http://www.w3.org/2000/svg" xmlns:xlink="http://www.w3.org/1999/xlink" width="50px" height="50px" viewBox="0 0 50 50" version="1.1">
<g id="surface1">
<path style=" stroke:none;fill-rule:nonzero;fill:rgb(0%,0%,0%);fill-opacity:1;" d="M 22.726562 0.109375 C 19.550781 0.410156 16.738281 1.21875 13.875 2.648438 C 11.335938 3.90625 9.484375 5.242188 7.382812 7.304688 C 5.382812 9.289062 3.9375 11.289062 2.648438 13.875 C -0.410156 20.007812 -0.820312 26.960938 1.476562 33.445312 C 2.335938 35.851562 4.042969 38.875 5.605469 40.773438 C 7.960938 43.601562 10.664062 45.75 13.875 47.351562 C 17.6875 49.25 21.738281 50.136719 25.878906 49.96875 C 29.601562 49.8125 32.832031 48.992188 36.125 47.351562 C 40.085938 45.390625 43.378906 42.480469 45.851562 38.769531 C 46.699219 37.492188 47.96875 34.992188 48.484375 33.554688 C 50.195312 28.886719 50.4375 23.515625 49.171875 18.679688 C 48.691406 16.867188 48.273438 15.75 47.363281 13.914062 C 46.09375 11.347656 44.757812 9.484375 42.695312 7.382812 C 37.507812 2.128906 30.03125 -0.59375 22.726562 0.109375 Z M 16.375 12.011719 C 16.6875 12.128906 21.425781 16.804688 21.640625 17.207031 C 21.972656 17.84375 21.90625 17.960938 20.125 19.765625 C 19.226562 20.683594 18.40625 21.582031 18.320312 21.75 C 17.949219 22.480469 18.027344 23.351562 18.523438 24.101562 C 20.15625 26.523438 24.453125 30.671875 26.4375 31.738281 C 26.882812 31.984375 27.773438 32 28.300781 31.789062 C 28.523438 31.6875 29.289062 31.015625 30.273438 30.03125 C 31.90625 28.40625 32.15625 28.234375 32.695312 28.367188 C 33.027344 28.445312 37.820312 33.195312 38.046875 33.671875 C 38.339844 34.296875 38.007812 34.824219 36.453125 36.179688 C 34.796875 37.636719 32.949219 38.25 31.054688 37.988281 C 28.507812 37.636719 24.316406 35.566406 21.289062 33.144531 C 20.15625 32.234375 17.382812 29.453125 16.484375 28.320312 C 14.453125 25.773438 12.695312 22.519531 12.050781 20.164062 C 11.640625 18.652344 11.816406 17.070312 12.570312 15.527344 C 12.976562 14.695312 13.144531 14.472656 14.289062 13.3125 C 14.980469 12.597656 15.644531 12 15.761719 11.984375 C 15.867188 11.960938 15.996094 11.933594 16.035156 11.921875 C 16.074219 11.921875 16.21875 11.960938 16.375 12.011719 Z M 16.375 12.011719 "/>
</g>
</svg>
