<?xml version="1.0" encoding="UTF-8"?>
<svg xmlns="http://www.w3.org/2000/svg" xmlns:xlink="http://www.w3.org/1999/xlink" width="50px" height="50px" viewBox="0 0 50 50" version="1.1">
<g id="surface1">
<path style=" stroke:none;fill-rule:nonzero;fill:rgb(0%,0%,0%);fill-opacity:1;" d="M 19.53125 0.625 C 10.390625 2.578125 2.5 10.546875 0.585938 19.726562 C -3.125 37.460938 12.539062 53.125 30.273438 49.414062 C 37.34375 47.929688 43.90625 42.851562 47.1875 36.328125 C 50.898438 28.867188 50.898438 21.132812 47.1875 13.671875 C 42.148438 3.632812 30.703125 -1.796875 19.53125 0.625 Z M 28.4375 10.9375 C 34.609375 11.601562 39.179688 13.59375 40.390625 16.210938 C 40.976562 17.421875 40.976562 17.65625 40.195312 19.726562 C 39.765625 20.9375 39.101562 22.03125 38.789062 22.148438 C 38.046875 22.460938 34.023438 21.5625 32.929688 20.859375 C 32.226562 20.429688 32.03125 19.921875 32.03125 18.59375 C 32.03125 15.742188 31.367188 15.429688 25 15.429688 C 18.632812 15.429688 17.96875 15.742188 17.96875 18.59375 C 17.96875 19.921875 17.773438 20.429688 17.109375 20.859375 C 15.976562 21.5625 11.953125 22.460938 11.210938 22.148438 C 10.898438 22.03125 10.234375 20.9375 9.804688 19.726562 C 9.023438 17.617188 9.023438 17.460938 9.609375 16.171875 C 10.78125 13.710938 15.625 11.523438 21.25 10.9375 C 22.773438 10.78125 24.21875 10.625 24.414062 10.625 C 24.648438 10.585938 26.445312 10.742188 28.4375 10.9375 Z M 28.4375 21.71875 C 28.554688 23.359375 28.554688 23.359375 33.4375 26.367188 C 36.09375 28.007812 38.476562 29.6875 38.671875 30.078125 C 38.90625 30.46875 39.0625 32.03125 39.0625 33.554688 C 39.0625 37.695312 39.726562 37.5 25 37.5 C 10.273438 37.5 10.9375 37.695312 10.9375 33.554688 C 10.9375 32.03125 11.09375 30.46875 11.328125 30.078125 C 11.523438 29.6875 13.90625 28.007812 16.601562 26.367188 C 21.40625 23.359375 21.484375 23.28125 21.484375 21.875 C 21.484375 21.09375 21.601562 20.3125 21.757812 20.15625 C 21.914062 20 23.4375 19.960938 25.195312 20 L 28.320312 20.117188 Z M 28.4375 21.71875 "/>
<path style=" stroke:none;fill-rule:nonzero;fill:rgb(0%,0%,0%);fill-opacity:1;" d="M 22.34375 25.78125 C 19.609375 27.460938 19.296875 31.09375 21.679688 33.476562 C 22.8125 34.609375 23.203125 34.765625 25 34.765625 C 26.796875 34.765625 27.1875 34.609375 28.320312 33.476562 C 29.0625 32.734375 29.726562 31.601562 29.882812 30.78125 C 30.429688 27.890625 28.007812 25 25 25 C 24.257812 25 23.046875 25.351562 22.34375 25.78125 Z M 26.71875 27.773438 C 28.007812 28.789062 28.085938 30.625 26.875 31.914062 C 25.195312 33.710938 22.265625 32.421875 22.265625 29.84375 C 22.265625 28.476562 23.710938 26.953125 25 26.953125 C 25.390625 26.953125 26.132812 27.304688 26.71875 27.773438 Z M 26.71875 27.773438 "/>
</g>
</svg>
