<?xml version="1.0" encoding="UTF-8"?>
<svg xmlns="http://www.w3.org/2000/svg" xmlns:xlink="http://www.w3.org/1999/xlink" width="50px" height="50px" viewBox="0 0 50 50" version="1.1">
<g id="surface1">
<path style=" stroke:none;fill-rule:nonzero;fill:rgb(0%,0%,0%);fill-opacity:1;" d="M 22.609375 0.109375 C 14.796875 0.917969 7.949219 5.164062 3.789062 11.789062 C -2.109375 21.171875 -0.996094 33.632812 6.464844 41.75 C 10.617188 46.257812 15.75 48.945312 21.921875 49.824219 C 23.085938 49.992188 26.921875 49.980469 28.125 49.8125 C 34.199219 48.976562 39.335938 46.296875 43.476562 41.804688 C 46.882812 38.117188 49.0625 33.390625 49.824219 28.078125 C 49.992188 26.921875 49.992188 23.078125 49.824219 21.921875 C 49.25 17.859375 47.960938 14.414062 45.820312 11.191406 C 44.921875 9.824219 44.015625 8.710938 42.742188 7.429688 C 38.847656 3.484375 34.023438 1.054688 28.46875 0.234375 C 27.265625 0.0585938 23.796875 -0.0195312 22.609375 0.109375 Z M 33.417969 8.671875 C 34.210938 8.992188 34.980469 9.726562 35.371094 10.527344 L 35.695312 11.179688 L 35.695312 38.820312 L 35.371094 39.472656 C 34.980469 40.273438 34.210938 41.007812 33.417969 41.328125 L 32.859375 41.554688 L 17.140625 41.554688 L 16.582031 41.328125 C 15.789062 41.007812 15.019531 40.273438 14.628906 39.472656 L 14.304688 38.820312 L 14.304688 11.179688 L 14.570312 10.625 C 14.851562 10.007812 15.476562 9.289062 15.984375 8.976562 C 16.171875 8.859375 16.570312 8.679688 16.875 8.585938 C 17.390625 8.417969 17.921875 8.40625 25.148438 8.429688 L 32.859375 8.445312 Z M 33.417969 8.671875 "/>
<path style=" stroke:none;fill-rule:nonzero;fill:rgb(0%,0%,0%);fill-opacity:1;" d="M 17.234375 10.539062 C 16.789062 10.742188 16.464844 11.0625 16.320312 11.453125 C 16.242188 11.640625 16.210938 15.253906 16.210938 23.007812 C 16.210938 32.53125 16.230469 34.328125 16.347656 34.550781 C 16.53125 34.902344 16.984375 35.3125 17.3125 35.4375 C 17.695312 35.585938 32.304688 35.585938 32.6875 35.4375 C 33.015625 35.3125 33.46875 34.902344 33.652344 34.550781 C 33.769531 34.328125 33.789062 32.53125 33.789062 23.007812 C 33.789062 15.253906 33.757812 11.640625 33.679688 11.453125 C 33.535156 11.0625 33.210938 10.742188 32.765625 10.539062 C 32.390625 10.359375 31.960938 10.351562 25 10.351562 C 18.039062 10.351562 17.609375 10.359375 17.234375 10.539062 Z M 17.234375 10.539062 "/>
<path style=" stroke:none;fill-rule:nonzero;fill:rgb(0%,0%,0%);fill-opacity:1;" d="M 22.792969 37.832031 C 22.519531 38.105469 22.460938 38.242188 22.460938 38.574219 C 22.460938 38.90625 22.519531 39.042969 22.792969 39.316406 L 23.125 39.648438 L 26.875 39.648438 L 27.207031 39.316406 C 27.480469 39.042969 27.539062 38.90625 27.539062 38.574219 C 27.539062 38.242188 27.480469 38.105469 27.207031 37.832031 L 26.875 37.5 L 23.125 37.5 Z M 22.792969 37.832031 "/>
</g>
</svg>
